HIERARCHY
ROOT Hips
{
	OFFSET 54.516819 111.144142 -24.173447
	CHANNELS 6 Xposition Yposition Zposition Xrotation Yrotation Zrotation
	JOINT Chest
	{
		OFFSET -0.178986 13.541504 1.658276
		CHANNELS 3 Xrotation Yrotation Zrotation
		JOINT Chest2
		{
			OFFSET -1.419395 21.142555 3.169291
			CHANNELS 3 Xrotation Yrotation Zrotation
			JOINT Chest3
			{
				OFFSET -0.470043 14.917114 0.280817
				CHANNELS 3 Xrotation Yrotation Zrotation
				JOINT Neck
				{
					OFFSET 0.127369 17.151230 2.105986
					CHANNELS 3 Xrotation Yrotation Zrotation
					JOINT Head
					{
						OFFSET -0.211525 10.379211 1.433536
						CHANNELS 3 Xrotation Yrotation Zrotation
						End Site
						{
							OFFSET -0.197887 10.389053 1.362415
						}
					}
				}
				JOINT LeftCollar
				{
					OFFSET 3.993076 12.729019 4.881792
					CHANNELS 3 Xrotation Yrotation Zrotation
					JOINT LeftUpArm
					{
						OFFSET 15.252720 -5.177124 -7.003653
						CHANNELS 3 Xrotation Yrotation Zrotation
						JOINT LeftLowArm
						{
							OFFSET 5.371178 -33.077164 -4.096319
							CHANNELS 3 Xrotation Yrotation Zrotation
							JOINT LeftHand
							{
								OFFSET 0.224747 -29.323273 6.406414
								CHANNELS 3 Xrotation Yrotation Zrotation
								End Site
								{
									OFFSET 0.049095 -6.408775 1.400156
								}
							}
						}
					}
				}
				JOINT RightCollar
				{
					OFFSET -4.380241 12.894043 4.045485
					CHANNELS 3 Xrotation Yrotation Zrotation
					JOINT RightUpArm
					{
						OFFSET -13.112854 -5.429749 -10.347333
						CHANNELS 3 Xrotation Yrotation Zrotation
						JOINT RightLowArm
						{
							OFFSET -7.109348 -32.900848 -2.593586
							CHANNELS 3 Xrotation Yrotation Zrotation
							JOINT RightHand
							{
								OFFSET -2.382811 -28.179077 10.060680
								CHANNELS 3 Xrotation Yrotation Zrotation
								End Site
								{
									OFFSET -0.520792 -6.158813 2.198862
								}
							}
						}
					}
				}
			}
		}
	}
	JOINT LeftUpLeg
	{
		OFFSET 9.857113 -0.090630 1.802298
		CHANNELS 3 Xrotation Yrotation Zrotation
		JOINT LeftLowLeg
		{
			OFFSET 2.556458 -46.966568 5.620998
			CHANNELS 3 Xrotation Yrotation Zrotation
			JOINT LeftFoot
			{
				OFFSET 4.215950 -43.046566 -11.392395
				CHANNELS 3 Xrotation Yrotation Zrotation
				JOINT LeftToe
				{
					OFFSET -0.632286 -16.521137 16.917797
					CHANNELS 3 Xrotation Yrotation Zrotation
					End Site
					{
						OFFSET -1.776939 -2.042900 23.499531
					}
				}
			}
		}
	}
	JOINT RightUpLeg
	{
		OFFSET -9.857113 0.090431 -1.802322
		CHANNELS 3 Xrotation Yrotation Zrotation
		JOINT RightLowLeg
		{
			OFFSET -1.078503 -47.321152 -1.886221
			CHANNELS 3 Xrotation Yrotation Zrotation
			JOINT RightFoot
			{
				OFFSET 6.051285 -40.828362 -17.233892
				CHANNELS 3 Xrotation Yrotation Zrotation
				JOINT RightToe
				{
					OFFSET -5.720383 -19.921804 11.399818
					CHANNELS 3 Xrotation Yrotation Zrotation
					End Site
					{
						OFFSET -10.327549 -7.302596 19.989244
					}
				}
			}
		}
	}
}
MOTION
Frames: 11
Frame Time: 0.033333
60.643509 105.829109 -42.515427 6.344513 -2.815650 1.293398 12.713808 0.132107 1.477305 -0.026238 -0.381246 0.066409 -4.757623 -0.794301 -1.416060 -5.018455 0.554329 -0.771374 -0.000004 0.000000 -0.000000 -1.167732 -5.980968 0.617009 -6.650685 -1.611076 5.178853 -1.191522 4.096943 6.320389 -0.000000 0.000002 0.000001 -0.609010 5.236169 -2.845335 -4.515699 -1.633960 -5.311752 -2.803821 -3.587316 -3.303097 -0.000001 0.000002 0.000000 -20.113616 -1.063565 0.548357 41.041456 -3.559997 -0.325524 -17.476733 12.557889 17.034225 -0.000001 0.000001 0.000000 -28.200572 2.432777 -4.537450 38.944929 11.084035 12.807307 -9.339375 -17.139170 1.210192 0.000003 0.000003 0.000003 
60.266556 105.484459 -42.868530 5.428884 -4.241137 2.003933 13.342321 0.204184 0.838896 0.356286 0.044159 -0.400854 -4.670884 -0.626707 -1.495464 -3.950356 1.384948 -1.808994 -0.000002 -0.000001 0.000000 -1.667365 -6.157559 2.874563 -7.717583 -2.445879 9.876792 -3.467031 6.138309 10.854376 0.000001 0.000001 -0.000001 -0.837872 4.356743 -6.396885 -2.758411 -3.356662 -9.012348 -5.658888 -5.444579 -5.224122 0.000001 0.000001 0.000003 -17.026162 -1.399022 0.888352 36.441761 -4.029175 -1.109591 -16.154639 13.364715 17.175284 -0.000000 0.000001 0.000001 -25.787564 2.409818 -3.864550 36.586438 10.759519 11.569167 -8.109798 -16.532060 0.802195 -0.000002 0.000003 0.000003 
59.815857 105.392113 -43.162678 3.561724 -5.130157 2.628941 14.763316 0.284200 0.513721 0.026421 0.346480 -0.960503 -3.886028 -0.820324 -1.663994 -4.391742 2.273007 -3.006014 -0.000001 0.000001 -0.000000 -2.753287 -3.644808 3.840559 -8.183496 -2.482718 14.733910 -5.441070 8.086307 12.897053 -0.000003 0.000001 -0.000001 -1.215178 3.967468 -9.472158 -1.046466 -5.778574 -12.358380 -9.114314 -6.667751 -5.354255 -0.000000 0.000001 -0.000003 -13.039207 -1.383242 1.188213 31.720532 -4.284595 -1.759176 -14.380442 13.043476 15.820187 -0.000000 -0.000000 -0.000003 -22.085359 2.243691 -3.825929 32.870080 10.075697 10.964198 -6.880299 -15.885294 0.356097 -0.000000 0.000000 0.000001 
59.186195 105.822060 -43.387230 1.612604 -5.057225 3.713715 13.818858 0.351340 0.100273 0.382435 0.768928 -1.655705 -3.053320 -1.706549 -2.216001 -1.307141 3.495512 -4.305830 -0.000002 0.000001 0.000000 -3.843027 -1.957167 5.829251 -7.641829 -2.152540 20.918382 -9.926218 8.363245 14.277547 -0.000000 0.000001 -0.000004 -1.706732 1.693633 -13.784299 0.954889 -8.488578 -16.662641 -13.498937 -6.453035 -4.257337 -0.000001 0.000000 0.000003 -6.785439 -0.956257 3.165427 23.120732 -4.178622 -3.848503 -10.334623 9.265016 9.615283 -0.000000 -0.000000 0.000000 -17.561226 2.012624 -4.829703 27.045288 8.871572 11.257993 -4.376044 -14.017333 -0.260110 -0.000000 -0.000000 0.000001 
58.410332 106.873283 -43.638191 -0.213202 -7.257422 4.908060 10.238819 0.557303 -1.467467 0.371428 1.522065 -2.778967 -1.318551 -1.166770 -2.111122 3.563377 5.039401 -6.275277 -0.000004 0.000000 -0.000000 -5.417660 -1.529042 8.593647 -7.678439 -2.119497 27.448420 -14.698504 8.479629 13.259573 0.000001 0.000001 0.000004 -2.286859 0.539474 -19.024329 1.591368 -10.867770 -21.887234 -15.339319 -7.043238 -0.500422 0.000001 0.000001 0.000003 -0.046741 -0.357130 6.911958 15.974598 -3.484893 -3.688748 -0.388182 1.620692 -0.292938 -0.000001 -0.000001 -0.000000 -11.789494 1.503076 -5.206766 18.802076 6.870656 8.779161 1.622755 -6.115621 -1.043885 -0.000004 0.000002 0.000001 
57.576443 108.143082 -43.876289 -2.106348 -8.621189 5.719848 9.521389 0.803429 -2.940644 0.002394 1.581578 -3.236943 -0.843910 -0.722178 -2.382434 7.014019 5.579450 -7.403680 -0.000001 -0.000001 -0.000000 -6.212864 -2.509877 10.501700 -7.342616 -1.641844 32.974179 -14.888673 9.147092 13.472371 -0.000001 0.000005 0.000000 -2.729796 -0.260691 -23.205646 2.307083 -13.258193 -26.476468 -13.852453 -7.480130 2.164268 0.000002 -0.000001 -0.000002 4.103821 0.685385 10.688498 11.743127 -3.293794 -2.393613 7.846456 -4.215343 -6.068526 0.000002 0.000002 0.000000 -7.520374 0.880453 -5.589584 13.052207 5.875997 5.965459 6.859806 0.775151 -2.638626 0.000001 0.000003 0.000002 
56.530560 109.813538 -44.085384 -2.043512 -10.004888 7.025929 7.668159 1.295821 -5.057551 -0.568835 1.674736 -3.737383 -0.153197 -1.925206 -2.766003 10.326780 6.500759 -8.721419 -0.000001 0.000001 -0.000000 -8.488247 -1.375167 12.667049 -9.016016 -2.529265 39.518272 -8.098664 12.768464 13.751747 -0.000000 0.000004 0.000004 -3.800490 -0.502058 -27.588802 1.337388 -15.537313 -32.781206 -5.481848 -10.394274 1.871275 0.000001 0.000000 0.000002 5.387015 1.565292 16.373328 12.976598 -3.650487 0.508568 16.761388 -5.305530 -6.872763 0.000002 0.000000 0.000002 -5.405052 0.527749 -6.449853 7.713907 5.474047 3.451172 12.289070 1.195239 -7.063943 -0.000000 0.000002 0.000001 
55.255943 111.641571 -44.243664 -0.581969 -11.936297 8.942984 5.536755 1.928604 -7.938557 -1.338955 2.188248 -4.746297 -0.096176 -2.642530 -2.661728 11.970599 7.504838 -9.261113 -0.000002 -0.000002 0.000001 -9.497601 -0.643976 14.897507 -10.062897 -3.086404 46.265786 -3.145326 15.878035 15.528882 -0.000000 0.000001 -0.000001 -4.068513 -0.117767 -32.202932 -0.194694 -16.580414 -38.042357 -0.444701 -13.230006 1.223507 -0.000000 -0.000000 -0.000000 6.059594 2.616308 23.096186 19.648509 -4.407035 3.594170 19.065153 -4.480056 -6.676824 -0.000001 0.000001 0.000002 -4.190265 0.235863 -7.865664 2.307693 5.448549 -0.023013 17.048181 1.225286 -10.904364 -0.000000 0.000002 0.000001 
53.980545 113.373848 -44.393440 1.455876 -12.641754 10.587664 2.754316 2.498400 -9.558482 0.385241 2.717475 -5.490874 -1.254876 -3.603351 -2.834312 11.771599 7.925641 -9.414975 -0.000003 0.000000 0.000000 -9.946773 -0.682209 16.367124 -10.664005 -3.954875 51.449360 -0.163162 17.912704 17.289502 0.000000 0.000000 0.000002 -4.308516 -0.181308 -35.648673 -1.825144 -15.747488 -42.042065 1.541065 -15.027261 0.890458 -0.000000 -0.000000 -0.000000 6.754430 3.567654 28.715328 24.850747 -4.623508 5.968381 19.730330 -2.418926 -5.454972 0.000003 0.000003 0.000002 -4.470607 0.207902 -9.301690 -2.903009 5.212715 -2.268034 21.314352 1.215671 -14.486990 0.000003 0.000001 0.000003 
52.584213 114.977783 -44.543995 3.673615 -13.262791 12.486050 -0.346227 3.270561 -11.550713 -0.279111 3.131038 -6.104062 -0.032797 -4.256840 -2.844645 12.348107 8.232704 -9.582334 -0.000001 0.000000 -0.000001 -10.158610 -1.511486 18.393894 -11.139258 -5.398592 56.371283 3.018566 19.794040 18.366444 -0.000001 0.000005 0.000001 -4.927873 -1.397327 -39.473794 -3.531511 -14.019893 -46.848875 4.485463 -16.408005 1.171935 -0.000002 0.000002 -0.000001 9.328591 5.421758 35.314335 20.024626 -4.530403 10.445822 22.661198 -1.972446 -5.139319 0.000001 0.000001 0.000004 -4.980241 0.231112 -11.091619 -8.056420 5.071017 -3.995692 25.596113 2.775051 -17.380506 0.000001 -0.000001 -0.000000 
51.117439 116.280731 -44.662212 3.094865 -13.154798 13.739946 -0.276691 3.682414 -13.674284 -1.235716 3.408457 -6.516688 0.387881 -5.744336 -2.486929 13.364222 8.326255 -9.672103 -0.000002 -0.000002 -0.000001 -9.658566 -1.919339 20.479590 -10.424558 -6.239910 60.316526 3.890655 19.698967 17.972589 -0.000003 0.000001 -0.000001 -3.795716 -0.341051 -42.620476 -3.081474 -13.057400 -50.802261 5.739428 -16.837432 -0.129733 -0.000000 -0.000000 -0.000000 10.446342 6.998582 42.461008 23.511074 -3.882196 14.619050 25.263263 -2.154693 -5.062229 -0.000003 -0.000001 0.000002 -4.462351 0.268547 -12.938379 -9.226843 4.349298 -3.702145 27.431687 4.900963 -18.667795 0.000002 -0.000002 0.000001 
